<svg width="24" height="22" viewBox="0 0 24 22" fill="none" xmlns="http://www.w3.org/2000/svg">
  <path d="M10.7456 1.05862C10.8612 0.824171 11.04 0.626744 11.262 0.488689C11.4839 0.350634 11.7401 0.277466 12.0014 0.277466C12.2628 0.277466 12.519 0.350634 12.7409 0.488689C12.9628 0.626744 13.1417 0.824171 13.2572 1.05862L15.9592 6.53402L22.003 7.41182C22.2616 7.44937 22.5045 7.55854 22.7043 7.72697C22.904 7.8954 23.0527 8.11637 23.1334 8.36489C23.2141 8.6134 23.2236 8.87955 23.1609 9.13321C23.0982 9.38686 22.9658 9.61792 22.7786 9.80022L18.405 14.0632L19.4382 20.0818C19.4823 20.3393 19.4535 20.604 19.3551 20.8459C19.2566 21.0879 19.0925 21.2974 18.8811 21.451C18.6698 21.6045 18.4197 21.6958 18.1592 21.7146C17.8986 21.7334 17.638 21.679 17.4068 21.5574L12.0028 18.7154L6.59603 21.5574C6.36487 21.6786 6.10443 21.7327 5.84413 21.7137C5.58382 21.6947 5.33401 21.6033 5.1229 21.4499C4.91178 21.2964 4.74777 21.087 4.64937 20.8453C4.55097 20.6035 4.5221 20.3391 4.56603 20.0818L5.59783 14.0618L1.22423 9.80022C1.03705 9.61792 0.904617 9.38686 0.841922 9.13321C0.779228 8.87955 0.788772 8.6134 0.869475 8.36489C0.950177 8.11637 1.09882 7.8954 1.29858 7.72697C1.49834 7.55854 1.74125 7.44937 1.99983 7.41182L8.04363 6.53402L10.7456 1.06002V1.05862Z" />
</svg>
