<svg width="24" height="23" viewBox="0 0 24 23" fill="none" xmlns="http://www.w3.org/2000/svg">
  <path d="M10.5896 1.67852C10.7197 1.41504 10.9209 1.19321 11.1704 1.03809C11.42 0.882983 11.708 0.800781 12.0018 0.800781C12.2957 0.800781 12.5837 0.882983 12.8332 1.03809C13.0828 1.19321 13.284 1.41504 13.4141 1.67852L16.0758 7.07202L22.0276 7.93652C22.3185 7.97848 22.592 8.10104 22.8169 8.29033C23.0418 8.47961 23.2093 8.72807 23.3003 9.00759C23.3913 9.2871 23.4024 9.58652 23.3321 9.87197C23.2618 10.1574 23.113 10.4175 22.9026 10.6228L18.5941 14.8228L19.6108 20.75C19.6602 21.0396 19.6277 21.3372 19.5168 21.6093C19.406 21.8814 19.2212 22.117 18.9835 22.2896C18.7457 22.4621 18.4645 22.5648 18.1715 22.5859C17.8784 22.607 17.5854 22.5457 17.3253 22.409L12.0018 19.6125L6.67833 22.4125C6.41802 22.5495 6.12454 22.6109 5.83113 22.5897C5.53773 22.5685 5.25613 22.4655 5.01824 22.2925C4.78035 22.1194 4.59568 21.8832 4.48514 21.6106C4.37461 21.338 4.34263 21.0399 4.39283 20.75L5.40783 14.8228L1.10283 10.6245C0.892442 10.4194 0.743647 10.1594 0.673272 9.8741C0.602897 9.58878 0.613748 9.28947 0.704599 9.01C0.79545 8.73053 0.962676 8.48205 1.18737 8.29265C1.41207 8.10326 1.68527 7.9805 1.97608 7.93827L7.92608 7.07377L10.5896 1.68027V1.67852ZM12.0001 2.77052L9.45558 7.92952C9.3426 8.15825 9.17575 8.35612 8.96937 8.5061C8.763 8.65608 8.52328 8.75369 8.27083 8.79052L2.57808 9.61827L6.69758 13.6328C6.88001 13.811 7.01642 14.031 7.09507 14.2736C7.17371 14.5163 7.19225 14.7744 7.14908 15.0258L6.17783 20.6958L11.2703 18.0183C11.4962 17.8996 11.7476 17.8376 12.0027 17.8376C12.2579 17.8376 12.5092 17.8996 12.7351 18.0183L17.8276 20.6958L16.8546 15.0258C16.8114 14.7744 16.83 14.5163 16.9086 14.2736C16.9872 14.031 17.1236 13.811 17.3061 13.6328L21.4256 9.61827L15.7328 8.79052C15.4804 8.75369 15.2407 8.65608 15.0343 8.5061C14.8279 8.35612 14.6611 8.15825 14.5481 7.92952L12.0001 2.77052Z" />
</svg>
